<svg width="1214" height="370" viewBox="0 0 1214 370" fill="none" xmlns="http://www.w3.org/2000/svg">
<g clip-path="url(#clip0_1256_4)" filter="url(#filter0_d_1256_4)">
<circle cx="147.5" cy="207.5" r="117" stroke="#D9AE5C" stroke-width="9"/>
<path d="M34.5 217.047L261 216.009" stroke="#D9AE5C" stroke-width="9"/>
<path d="M71.0299 217L71.186 122" stroke="#D9AE5C" stroke-width="9"/>
<path d="M149 158L203 104" stroke="#D9AE5C" stroke-width="11"/>
<path d="M52 217L52.1218 142" stroke="#D9AE5C" stroke-width="9"/>
<path d="M149 131L181 98" stroke="#D9AE5C" stroke-width="11"/>
<path d="M34.5 239.035L261 237.997" stroke="#D9AE5C" stroke-width="9"/>
<path d="M382.285 189C409.075 189 435.16 176.31 435.16 139.65C435.16 102.99 409.075 90.3 382.285 90.3H335.755V91.005C339.985 96.645 341.395 103.695 341.395 112.86V166.44C341.395 175.605 339.985 182.655 335.755 188.295V189H382.285ZM380.17 184.77C376.645 184.77 373.12 184.065 369.595 182.655V96.645C373.12 95.235 376.645 94.53 380.17 94.53C399.205 94.53 406.255 117.09 406.255 139.65C406.255 162.21 399.205 184.77 380.17 184.77ZM491.566 191.115C518.356 191.115 530.341 178.425 530.341 156.57V114.27C530.341 105.105 534.571 96.645 539.506 91.146V90.3H516.241V91.146C521.176 96.645 525.406 105.105 525.406 114.27V156.57C525.406 173.49 516.946 182.655 502.141 182.655C487.336 182.655 478.876 173.631 478.876 156.57V112.86C478.876 103.695 480.286 96.645 484.516 91.005V90.3H445.036V91.005C449.266 96.645 450.676 103.695 450.676 112.86V156.57C450.676 178.425 466.186 191.115 491.566 191.115ZM625.477 189L629.566 156.57H628.156C620.542 174.195 611.377 184.77 588.112 184.77H582.472V112.86C582.472 103.695 583.882 96.645 588.112 91.005V90.3H548.632V91.005C552.862 96.645 554.272 103.695 554.272 112.86V166.44C554.272 175.605 552.862 182.655 548.632 188.295V189H625.477ZM679.956 191.115C702.939 191.115 719.154 175.605 721.974 153.75H720.564C714.219 166.44 703.644 170.67 693.21 170.67C671.214 170.67 655.704 152.34 655.704 128.37C655.704 103.695 667.689 92.415 681.084 92.415C697.299 92.415 709.284 108.63 715.629 124.845H717.039V94.53C711.258 91.851 698.85 88.185 685.314 88.185C654.999 88.185 631.029 110.04 631.029 141.06C631.029 172.785 653.589 191.115 679.956 191.115ZM809.333 189L813.422 157.98H812.012C805.103 174.195 795.233 184.77 771.968 184.77H764.918V141.765H770.558C783.248 141.765 790.298 148.11 793.823 159.39H795.233V119.91H793.823C790.298 131.19 783.248 137.535 770.558 137.535H764.918V94.53H769.148C792.413 94.53 802.283 105.105 809.192 121.32H810.602L806.513 90.3H731.078V91.005C735.308 96.645 736.718 103.695 736.718 112.86V166.44C736.718 175.605 735.308 182.655 731.078 188.295V189H809.333ZM397.795 317V316.295C393.565 310.655 392.155 303.605 392.155 294.44V222.53H393.142C408.793 222.53 420.778 234.515 428.11 251.435H429.52L425.572 218.3H330.538L326.59 251.435H328C335.332 234.515 347.317 222.53 362.968 222.53H363.955V294.44C363.955 303.605 362.545 310.655 358.315 316.295V317H397.795ZM514.114 317L518.204 285.98H516.793C509.884 302.195 500.014 312.77 476.749 312.77H469.699V269.765H475.339C488.029 269.765 495.079 276.11 498.604 287.39H500.014V247.91H498.604C495.079 259.19 488.029 265.535 475.339 265.535H469.699V222.53H473.929C497.194 222.53 507.064 233.105 513.973 249.32H515.383L511.294 218.3H435.859V219.005C440.089 224.645 441.499 231.695 441.499 240.86V294.44C441.499 303.605 440.089 310.655 435.859 316.295V317H514.114ZM548.544 317V316.154C543.609 310.655 539.379 302.195 539.379 293.03V237.617L605.649 317H611.289V242.27C611.289 233.105 615.519 224.645 620.454 219.146V218.3H597.189V219.146C602.124 224.645 606.354 233.105 606.354 242.27V275.828L558.414 218.3H525.279V219.146C530.214 224.645 534.444 233.105 534.444 242.27V293.03C534.444 302.195 530.214 310.655 525.279 316.154V317H548.544ZM693.84 317V316.295C689.61 310.655 688.2 303.605 688.2 294.44V222.53H689.187C704.838 222.53 716.823 234.515 724.155 251.435H725.565L721.617 218.3H626.583L622.635 251.435H624.045C631.377 234.515 643.362 222.53 659.013 222.53H660V294.44C660 303.605 658.59 310.655 654.36 316.295V317H693.84ZM739.687 317V316.295C734.752 310.655 731.227 302.195 735.457 292.043L738.277 285.275H774.232L777.757 293.735C781.564 302.759 779.872 310.655 775.642 316.295V317H821.467V316.295C815.122 309.245 811.597 302.9 808.072 293.735L778.462 218.3H759.427L729.394 294.722C726.01 303.464 721.075 310.232 715.012 316.295V317H739.687ZM756.184 238.463L772.822 281.045H739.687L756.184 238.463ZM869.7 319.115C892.683 319.115 908.898 303.605 911.718 281.75H910.308C903.963 294.44 893.388 298.67 882.954 298.67C860.958 298.67 845.448 280.34 845.448 256.37C845.448 231.695 857.433 220.415 870.828 220.415C887.043 220.415 899.028 236.63 905.373 252.845H906.783V222.53C901.002 219.851 888.594 216.185 875.058 216.185C844.743 216.185 820.773 238.04 820.773 269.06C820.773 300.785 843.333 319.115 869.7 319.115ZM961.007 317V316.295C956.777 310.655 955.367 303.605 955.367 294.44V240.86C955.367 231.695 956.777 224.645 961.007 219.005V218.3H921.527V219.005C925.757 224.645 927.167 231.695 927.167 240.86V294.44C927.167 303.605 925.757 310.655 921.527 316.295V317H961.007ZM1025.22 319.115C1056.94 319.115 1076.68 298.67 1076.68 267.65C1076.68 236.63 1056.94 216.185 1025.22 216.185C993.492 216.185 973.752 236.63 973.752 267.65C973.752 298.67 993.492 319.115 1025.22 319.115ZM1025.22 314.885C1010.27 314.885 1003.36 295.568 1003.36 267.65C1003.36 239.732 1010.27 220.415 1025.22 220.415C1040.16 220.415 1047.07 239.732 1047.07 267.65C1047.07 295.568 1040.16 314.885 1025.22 314.885ZM1108.41 317V316.154C1103.48 310.655 1099.25 302.195 1099.25 293.03V237.617L1165.52 317H1171.16V242.27C1171.16 233.105 1175.39 224.645 1180.32 219.146V218.3H1157.06V219.146C1161.99 224.645 1166.22 233.105 1166.22 242.27V275.828L1118.28 218.3H1085.15V219.146C1090.08 224.645 1094.31 233.105 1094.31 242.27V293.03C1094.31 302.195 1090.08 310.655 1085.15 316.154V317H1108.41Z" fill="white"/>
<path d="M90.0598 217L90.2405 107" stroke="#D9AE5C" stroke-width="9"/>
<path d="M148 188L222 113" stroke="#D9AE5C" stroke-width="9"/>
<path d="M46 261.023L250.997 259.975" stroke="#D9AE5C" stroke-width="9"/>
<path d="M109.09 217L109.231 97" stroke="#D9AE5C" stroke-width="9"/>
<path d="M151 213.599L232 131" stroke="#D9AE5C" stroke-width="9"/>
<path d="M60 283L237 283" stroke="#D9AE5C" stroke-width="9"/>
<path d="M128.12 217L128.81 95.002" stroke="#D9AE5C" stroke-width="9"/>
<path d="M175 216.134L244.305 144.045" stroke="#D9AE5C" stroke-width="9"/>
<path d="M81 304L214 304" stroke="#D9AE5C" stroke-width="9"/>
<path d="M148.151 217L148.842 95.002" stroke="#D9AE5C" stroke-width="9"/>
<path d="M201 216.134L256.444 158.463" stroke="#D9AE5C" stroke-width="9"/>
<path d="M229 216L260.82 184.18" stroke="#D9AE5C" stroke-width="9"/>
<path d="M354.064 32.664C353.968 31.96 353.664 31.368 353.152 30.888C352.64 30.376 352 29.976 351.232 29.688C350.496 29.4 349.664 29.192 348.736 29.064C347.84 28.936 346.944 28.872 346.048 28.872C343.2 28.872 340.992 29.592 339.424 31.032C338.208 32.12 337.328 33.576 336.784 35.4C336.24 37.192 335.968 39.144 335.968 41.256C335.968 43.272 336.24 45.048 336.784 46.584C337.36 48.12 338.128 49.416 339.088 50.472C340.08 51.496 341.248 52.28 342.592 52.824C343.936 53.336 345.408 53.592 347.008 53.592C348.384 53.592 349.968 53.448 351.76 53.16C353.584 52.84 355.296 52.248 356.896 51.384L357.472 52.44L356.32 54.552C354.656 55.576 352.976 56.328 351.28 56.808C349.616 57.288 347.904 57.528 346.144 57.528C343.744 57.528 341.568 57.144 339.616 56.376C337.664 55.608 335.984 54.52 334.576 53.112C333.2 51.672 332.128 49.976 331.36 48.024C330.592 46.04 330.208 43.848 330.208 41.448C330.208 39.208 330.544 37.096 331.216 35.112C331.92 33.096 332.944 31.352 334.288 29.88C335.664 28.408 337.344 27.24 339.328 26.376C341.344 25.512 343.68 25.08 346.336 25.08C346.976 25.08 347.728 25.112 348.592 25.176C349.456 25.208 350.368 25.304 351.328 25.464C352.288 25.592 353.248 25.8 354.208 26.088C355.2 26.344 356.144 26.68 357.04 27.096L357.184 27.528L356.56 32.856H354.208L354.064 32.664ZM405.886 57.288C405.662 57.288 405.294 57.272 404.782 57.24C404.27 57.208 403.742 57.176 403.198 57.144C402.654 57.112 402.126 57.08 401.614 57.048C401.102 57.016 400.734 57 400.51 57H397.678C397.454 57 397.086 57.016 396.574 57.048C396.062 57.08 395.534 57.112 394.99 57.144C394.446 57.176 393.918 57.208 393.406 57.24C392.894 57.272 392.526 57.288 392.302 57.288L392.206 57.096L392.35 55.272L392.542 55.08C393.054 55.08 393.534 55.064 393.982 55.032C394.43 54.968 394.814 54.824 395.134 54.6C395.422 54.376 395.646 54.088 395.806 53.736C395.966 53.384 396.126 52.76 396.286 51.864C396.318 51.64 396.334 51.384 396.334 51.096C396.366 50.776 396.382 50.392 396.382 49.944C396.414 49.496 396.43 48.952 396.43 48.312C396.43 47.672 396.43 46.872 396.43 45.912V42.072H382.222V44.952C382.222 46.104 382.222 47.048 382.222 47.784C382.222 48.488 382.222 49.08 382.222 49.56C382.254 50.04 382.27 50.456 382.27 50.808C382.302 51.128 382.334 51.48 382.366 51.864C382.43 52.76 382.574 53.384 382.798 53.736C383.022 54.088 383.262 54.376 383.518 54.6C383.806 54.824 384.174 54.968 384.622 55.032C385.102 55.064 385.598 55.08 386.11 55.08L386.302 55.272L386.446 57.096L386.35 57.288C386.126 57.288 385.758 57.272 385.246 57.24C384.734 57.208 384.206 57.176 383.662 57.144C383.118 57.112 382.59 57.08 382.078 57.048C381.566 57.016 381.198 57 380.974 57H378.142C377.918 57 377.55 57.016 377.038 57.048C376.526 57.08 375.998 57.112 375.454 57.144C374.91 57.176 374.382 57.208 373.87 57.24C373.358 57.272 372.99 57.288 372.766 57.288L372.67 57.096L372.814 55.272L373.054 55.08C373.566 55.08 374.046 55.064 374.494 55.032C374.942 54.968 375.31 54.824 375.598 54.6C375.854 54.376 376.094 54.088 376.318 53.736C376.574 53.384 376.734 52.76 376.798 51.864C376.798 51.64 376.798 51.384 376.798 51.096C376.83 50.776 376.846 50.392 376.846 49.944C376.878 49.496 376.894 48.952 376.894 48.312C376.894 47.672 376.894 46.872 376.894 45.912V38.088C376.894 36.968 376.894 36.024 376.894 35.256C376.894 34.488 376.878 33.832 376.846 33.288C376.846 32.744 376.83 32.28 376.798 31.896C376.798 31.512 376.782 31.128 376.75 30.744C376.686 29.912 376.542 29.304 376.318 28.92C376.094 28.536 375.854 28.232 375.598 28.008C375.31 27.784 374.942 27.656 374.494 27.624C374.046 27.56 373.566 27.528 373.054 27.528L372.814 27.336L372.67 25.512L372.766 25.32C372.99 25.32 373.358 25.336 373.87 25.368C374.382 25.4 374.91 25.432 375.454 25.464C375.998 25.496 376.526 25.528 377.038 25.56C377.55 25.592 377.918 25.608 378.142 25.608H380.974C381.198 25.608 381.566 25.592 382.078 25.56C382.59 25.528 383.118 25.496 383.662 25.464C384.206 25.432 384.734 25.4 385.246 25.368C385.758 25.336 386.126 25.32 386.35 25.32L386.446 25.512L386.302 27.336L386.11 27.528C385.662 27.528 385.182 27.56 384.67 27.624C384.19 27.656 383.806 27.784 383.518 28.008C383.262 28.232 383.006 28.52 382.75 28.872C382.526 29.224 382.398 29.848 382.366 30.744C382.334 31.192 382.302 31.608 382.27 31.992C382.27 32.376 382.254 32.824 382.222 33.336C382.222 33.848 382.222 34.472 382.222 35.208C382.222 35.944 382.222 36.888 382.222 38.04V38.52H396.43V38.088C396.43 36.968 396.43 36.024 396.43 35.256C396.43 34.488 396.414 33.832 396.382 33.288C396.382 32.744 396.366 32.28 396.334 31.896C396.334 31.512 396.318 31.128 396.286 30.744C396.222 29.848 396.078 29.224 395.854 28.872C395.63 28.52 395.39 28.232 395.134 28.008C394.846 27.784 394.462 27.656 393.982 27.624C393.534 27.56 393.054 27.528 392.542 27.528L392.35 27.336L392.206 25.512L392.302 25.32C392.526 25.32 392.894 25.336 393.406 25.368C393.918 25.4 394.446 25.432 394.99 25.464C395.534 25.496 396.062 25.528 396.574 25.56C397.086 25.592 397.454 25.608 397.678 25.608H400.51C400.734 25.608 401.102 25.592 401.614 25.56C402.126 25.528 402.654 25.496 403.198 25.464C403.742 25.432 404.27 25.4 404.782 25.368C405.294 25.336 405.662 25.32 405.886 25.32L405.982 25.512L405.838 27.336L405.598 27.528C405.086 27.528 404.59 27.56 404.11 27.624C403.662 27.656 403.31 27.784 403.054 28.008C402.798 28.232 402.558 28.52 402.334 28.872C402.142 29.224 401.982 29.848 401.854 30.744C401.822 31.192 401.79 31.608 401.758 31.992C401.758 32.376 401.758 32.824 401.758 33.336C401.758 33.848 401.758 34.472 401.758 35.208C401.758 35.944 401.758 36.888 401.758 38.04V44.952C401.758 46.104 401.758 47.048 401.758 47.784C401.758 48.488 401.758 49.08 401.758 49.56C401.758 50.04 401.758 50.456 401.758 50.808C401.79 51.128 401.822 51.48 401.854 51.864C401.918 52.76 402.062 53.384 402.286 53.736C402.542 54.088 402.798 54.376 403.054 54.6C403.342 54.824 403.71 54.968 404.158 55.032C404.606 55.064 405.086 55.08 405.598 55.08L405.838 55.272L405.982 57.096L405.886 57.288ZM437.165 25.08C439.629 25.08 441.821 25.512 443.741 26.376C445.661 27.24 447.277 28.424 448.589 29.928C449.901 31.4 450.893 33.112 451.565 35.064C452.269 37.016 452.621 39.064 452.621 41.208C452.621 43.32 452.285 45.368 451.613 47.352C450.941 49.304 449.933 51.032 448.589 52.536C447.277 54.04 445.629 55.256 443.645 56.184C441.693 57.08 439.421 57.528 436.829 57.528C434.333 57.528 432.141 57.096 430.253 56.232C428.365 55.368 426.781 54.216 425.501 52.776C424.253 51.304 423.309 49.608 422.669 47.688C422.029 45.736 421.709 43.688 421.709 41.544C421.709 39.272 422.061 37.144 422.765 35.16C423.469 33.144 424.477 31.4 425.789 29.928C427.101 28.424 428.717 27.24 430.637 26.376C432.557 25.512 434.733 25.08 437.165 25.08ZM437.117 53.544C438.685 53.544 440.077 53.224 441.293 52.584C442.541 51.912 443.581 51.032 444.413 49.944C445.245 48.824 445.885 47.528 446.333 46.056C446.781 44.552 447.005 42.952 447.005 41.256C447.005 39.528 446.765 37.928 446.285 36.456C445.837 34.952 445.165 33.656 444.269 32.568C443.405 31.48 442.349 30.632 441.101 30.024C439.853 29.384 438.445 29.064 436.877 29.064C435.341 29.064 433.981 29.368 432.797 29.976C431.613 30.584 430.621 31.432 429.821 32.52C429.021 33.608 428.413 34.904 427.997 36.408C427.581 37.88 427.373 39.48 427.373 41.208C427.373 43.128 427.613 44.856 428.093 46.392C428.573 47.896 429.245 49.176 430.109 50.232C430.973 51.288 431.997 52.104 433.181 52.68C434.365 53.256 435.677 53.544 437.117 53.544ZM492.439 32.664C492.343 31.96 492.039 31.368 491.527 30.888C491.015 30.376 490.375 29.976 489.607 29.688C488.871 29.4 488.039 29.192 487.111 29.064C486.215 28.936 485.319 28.872 484.423 28.872C481.575 28.872 479.367 29.592 477.799 31.032C476.583 32.12 475.703 33.576 475.159 35.4C474.615 37.192 474.343 39.144 474.343 41.256C474.343 43.272 474.615 45.048 475.159 46.584C475.735 48.12 476.503 49.416 477.463 50.472C478.455 51.496 479.623 52.28 480.967 52.824C482.311 53.336 483.783 53.592 485.383 53.592C486.759 53.592 488.343 53.448 490.135 53.16C491.959 52.84 493.671 52.248 495.271 51.384L495.847 52.44L494.695 54.552C493.031 55.576 491.351 56.328 489.655 56.808C487.991 57.288 486.279 57.528 484.519 57.528C482.119 57.528 479.943 57.144 477.991 56.376C476.039 55.608 474.359 54.52 472.951 53.112C471.575 51.672 470.503 49.976 469.735 48.024C468.967 46.04 468.583 43.848 468.583 41.448C468.583 39.208 468.919 37.096 469.591 35.112C470.295 33.096 471.319 31.352 472.663 29.88C474.039 28.408 475.719 27.24 477.703 26.376C479.719 25.512 482.055 25.08 484.711 25.08C485.351 25.08 486.103 25.112 486.967 25.176C487.831 25.208 488.743 25.304 489.703 25.464C490.663 25.592 491.623 25.8 492.583 26.088C493.575 26.344 494.519 26.68 495.415 27.096L495.559 27.528L494.935 32.856H492.583L492.439 32.664ZM526.837 25.08C529.301 25.08 531.493 25.512 533.413 26.376C535.333 27.24 536.949 28.424 538.261 29.928C539.573 31.4 540.565 33.112 541.237 35.064C541.941 37.016 542.293 39.064 542.293 41.208C542.293 43.32 541.957 45.368 541.285 47.352C540.613 49.304 539.605 51.032 538.261 52.536C536.949 54.04 535.301 55.256 533.317 56.184C531.365 57.08 529.093 57.528 526.501 57.528C524.005 57.528 521.813 57.096 519.925 56.232C518.037 55.368 516.453 54.216 515.173 52.776C513.925 51.304 512.981 49.608 512.341 47.688C511.701 45.736 511.381 43.688 511.381 41.544C511.381 39.272 511.733 37.144 512.437 35.16C513.141 33.144 514.149 31.4 515.461 29.928C516.773 28.424 518.389 27.24 520.309 26.376C522.229 25.512 524.405 25.08 526.837 25.08ZM526.789 53.544C528.357 53.544 529.749 53.224 530.965 52.584C532.213 51.912 533.253 51.032 534.085 49.944C534.917 48.824 535.557 47.528 536.005 46.056C536.453 44.552 536.677 42.952 536.677 41.256C536.677 39.528 536.437 37.928 535.957 36.456C535.509 34.952 534.837 33.656 533.941 32.568C533.077 31.48 532.021 30.632 530.773 30.024C529.525 29.384 528.117 29.064 526.549 29.064C525.013 29.064 523.653 29.368 522.469 29.976C521.285 30.584 520.293 31.432 519.493 32.52C518.693 33.608 518.085 34.904 517.669 36.408C517.253 37.88 517.045 39.48 517.045 41.208C517.045 43.128 517.285 44.856 517.765 46.392C518.245 47.896 518.917 49.176 519.781 50.232C520.645 51.288 521.669 52.104 522.853 52.68C524.037 53.256 525.349 53.544 526.789 53.544ZM562.047 30.744C561.983 30.2 561.855 29.672 561.663 29.16C561.503 28.616 561.247 28.216 560.895 27.96C560.639 27.8 560.319 27.688 559.935 27.624C559.551 27.56 559.023 27.528 558.351 27.528L558.111 27.336L557.967 25.512L558.063 25.32C558.351 25.352 558.735 25.384 559.215 25.416C559.727 25.448 560.239 25.48 560.751 25.512C561.295 25.544 561.807 25.576 562.287 25.608C562.767 25.608 563.151 25.608 563.439 25.608H566.271C566.559 25.608 566.927 25.608 567.375 25.608C567.855 25.576 568.351 25.544 568.863 25.512C569.407 25.48 569.919 25.448 570.399 25.416C570.911 25.384 571.327 25.352 571.647 25.32L571.743 25.512L571.599 27.336L571.407 27.528C570.607 27.528 570.015 27.576 569.631 27.672C569.279 27.736 568.991 27.848 568.767 28.008C568.095 28.456 567.711 29.368 567.615 30.744C567.583 31.064 567.551 31.4 567.519 31.752C567.519 32.072 567.519 32.504 567.519 33.048C567.519 33.56 567.519 34.216 567.519 35.016C567.519 35.816 567.519 36.824 567.519 38.04V44.472C567.519 45.72 567.519 46.744 567.519 47.544C567.519 48.312 567.519 48.968 567.519 49.512C567.551 50.024 567.567 50.488 567.567 50.904C567.599 51.288 567.647 51.752 567.711 52.296C567.743 52.936 568.111 53.256 568.815 53.256H573.279C574.335 53.256 575.167 53.24 575.775 53.208C576.415 53.144 576.911 53.016 577.263 52.824C577.615 52.6 577.887 52.296 578.079 51.912C578.271 51.528 578.447 51 578.607 50.328L578.751 50.136H580.959L580.095 56.712L579.711 57.192C579.455 57.16 579.055 57.128 578.511 57.096C577.967 57.096 577.391 57.08 576.783 57.048C576.175 57.048 575.567 57.032 574.959 57C574.383 57 573.935 57 573.615 57H563.439C563.215 57 562.847 57 562.335 57C561.855 57.032 561.343 57.064 560.799 57.096C560.255 57.128 559.727 57.16 559.215 57.192C558.703 57.224 558.319 57.256 558.063 57.288L557.967 57.096L558.111 55.272L558.351 55.08C559.567 55.08 560.399 54.904 560.847 54.552C561.103 54.328 561.343 53.976 561.567 53.496C561.823 53.016 561.983 52.456 562.047 51.816C562.079 51.496 562.095 51.064 562.095 50.52C562.127 49.944 562.143 49.352 562.143 48.744C562.175 48.136 562.191 47.576 562.191 47.064C562.191 46.52 562.191 46.136 562.191 45.912V38.088C562.191 36.328 562.175 34.792 562.143 33.48C562.143 32.136 562.111 31.224 562.047 30.744ZM608.325 25.08L616.581 46.872C616.869 47.672 617.125 48.344 617.349 48.888C617.573 49.432 617.749 49.896 617.877 50.28C618.037 50.664 618.165 50.984 618.261 51.24C618.389 51.464 618.501 51.672 618.597 51.864C618.981 52.664 619.365 53.288 619.749 53.736C620.165 54.152 620.565 54.472 620.949 54.696C621.365 54.888 621.781 55 622.197 55.032C622.613 55.064 623.029 55.08 623.445 55.08L623.685 55.272L623.829 57.096L623.733 57.288C623.509 57.288 623.173 57.272 622.725 57.24C622.277 57.208 621.813 57.176 621.333 57.144C620.853 57.112 620.389 57.08 619.941 57.048C619.525 57.016 619.205 57 618.981 57H615.477C615.253 57 614.885 57.016 614.373 57.048C613.861 57.08 613.317 57.112 612.741 57.144C612.197 57.176 611.669 57.208 611.157 57.24C610.645 57.272 610.277 57.288 610.053 57.288L609.957 57.096L610.101 55.272L610.293 55.08C611.125 55.08 611.749 54.984 612.165 54.792C612.613 54.568 612.837 53.992 612.837 53.064C612.837 52.552 612.741 51.832 612.549 50.904C612.389 49.944 611.989 48.76 611.349 47.352L610.341 45.048H601.941L600.981 47.352C600.405 48.76 599.973 49.96 599.685 50.952C599.397 51.944 599.253 52.648 599.253 53.064C599.253 53.832 599.413 54.36 599.733 54.648C600.053 54.936 600.629 55.08 601.461 55.08L601.701 55.272L601.845 57.096L601.749 57.288C601.525 57.288 601.173 57.272 600.693 57.24C600.213 57.208 599.701 57.176 599.157 57.144C598.645 57.112 598.149 57.08 597.669 57.048C597.189 57.016 596.837 57 596.613 57H593.781C593.557 57 593.221 57.016 592.773 57.048C592.325 57.08 591.861 57.112 591.381 57.144C590.901 57.176 590.437 57.208 589.989 57.24C589.573 57.272 589.253 57.288 589.029 57.288L588.981 57.096L589.077 55.272L589.317 55.08C589.733 55.08 590.149 55.048 590.565 54.984C590.981 54.92 591.397 54.776 591.813 54.552C592.229 54.328 592.629 54.024 593.013 53.64C593.429 53.224 593.845 52.696 594.261 52.056C594.357 51.864 594.501 51.576 594.693 51.192C594.885 50.776 595.189 50.056 595.605 49.032C596.021 48.008 596.597 46.552 597.333 44.664C598.069 42.776 599.045 40.264 600.261 37.128L604.389 26.52L607.797 25.08H608.325ZM602.757 41.544H609.045L605.973 33.048L602.757 41.544ZM653.444 57.288C653.22 57.288 652.868 57.272 652.388 57.24C651.908 57.208 651.396 57.176 650.852 57.144C650.308 57.112 649.796 57.08 649.316 57.048C648.836 57.016 648.484 57 648.26 57H643.604C643.38 57 643.028 57.016 642.548 57.048C642.068 57.08 641.556 57.112 641.012 57.144C640.5 57.176 640.004 57.208 639.524 57.24C639.044 57.272 638.692 57.288 638.468 57.288L638.372 57.096L638.516 55.272L638.756 55.08C639.236 55.08 639.796 55.064 640.436 55.032C641.108 55 641.588 54.856 641.876 54.6C642.132 54.376 642.388 54.088 642.644 53.736C642.9 53.384 643.076 52.76 643.172 51.864C643.204 51.64 643.22 51.384 643.22 51.096C643.252 50.776 643.268 50.392 643.268 49.944C643.3 49.496 643.316 48.952 643.316 48.312C643.316 47.672 643.316 46.872 643.316 45.912V37.128C643.316 35.368 643.3 33.8 643.268 32.424C643.236 31.048 643.204 30.024 643.172 29.352H642.644C641.428 29.352 640.42 29.368 639.62 29.4C638.82 29.4 638.18 29.432 637.7 29.496C637.22 29.528 636.852 29.576 636.596 29.64C636.372 29.704 636.212 29.784 636.116 29.88C635.764 30.04 635.476 30.296 635.252 30.648C635.028 31 634.884 31.416 634.82 31.896L634.628 32.088H632.564L632.9 25.656L633.092 25.224L633.38 25.08C633.636 25.176 634.196 25.272 635.06 25.368C635.924 25.432 636.868 25.48 637.892 25.512C638.916 25.544 639.892 25.576 640.82 25.608C641.78 25.608 642.468 25.608 642.884 25.608H648.932C649.348 25.608 650.02 25.608 650.948 25.608C651.908 25.576 652.9 25.544 653.924 25.512C654.948 25.48 655.892 25.432 656.756 25.368C657.62 25.272 658.18 25.176 658.436 25.08L658.724 25.224L658.916 25.656L659.3 32.088H657.188L656.996 31.896C656.932 31.416 656.788 31 656.564 30.648C656.34 30.296 656.052 30.04 655.7 29.88C655.604 29.752 655.428 29.656 655.172 29.592C654.948 29.496 654.596 29.432 654.116 29.4C653.636 29.368 652.996 29.352 652.196 29.352C651.428 29.352 650.436 29.352 649.22 29.352H648.692C648.66 30.12 648.628 31.144 648.596 32.424C648.596 33.704 648.596 35.256 648.596 37.08V44.952C648.596 46.104 648.596 47.048 648.596 47.784C648.596 48.488 648.596 49.08 648.596 49.56C648.628 50.04 648.644 50.456 648.644 50.808C648.676 51.128 648.708 51.48 648.74 51.864C648.804 52.792 648.98 53.432 649.268 53.784C649.556 54.136 649.828 54.408 650.084 54.6C650.212 54.728 650.388 54.824 650.612 54.888C650.868 54.952 651.14 55 651.428 55.032C651.716 55.064 652.004 55.08 652.292 55.08C652.612 55.08 652.9 55.08 653.156 55.08L653.396 55.272L653.54 57.096L653.444 57.288ZM686.072 25.608C686.52 25.608 687.176 25.608 688.04 25.608C688.936 25.576 689.848 25.544 690.776 25.512C691.704 25.48 692.536 25.464 693.272 25.464C694.008 25.432 694.456 25.416 694.616 25.416L694.904 25.896L694.664 32.088H692.504L692.312 31.896C692.248 31.288 692.152 30.808 692.024 30.456C691.928 30.104 691.64 29.848 691.16 29.688C690.68 29.528 689.928 29.432 688.904 29.4C687.912 29.368 686.52 29.352 684.728 29.352H681.992L681.944 29.784C681.912 30.232 681.88 30.648 681.848 31.032C681.848 31.416 681.832 31.864 681.8 32.376C681.8 32.888 681.8 33.512 681.8 34.248C681.8 34.984 681.8 35.928 681.8 37.08V38.712C682.568 38.68 683.304 38.68 684.008 38.712C684.712 38.712 685.368 38.696 685.976 38.664C686.584 38.632 687.096 38.584 687.512 38.52C687.96 38.424 688.28 38.28 688.472 38.088C688.792 37.768 688.952 37.32 688.952 36.744L689.192 36.504L690.968 36.408L691.16 36.504C691.096 37.24 691.032 37.88 690.968 38.424C690.936 38.968 690.92 39.592 690.92 40.296C690.92 41.064 690.936 41.784 690.968 42.456C691.032 43.096 691.096 43.8 691.16 44.568L690.968 44.664L689.144 44.568L688.952 44.424C688.952 43.624 688.808 43.032 688.52 42.648C688.264 42.296 687.528 42.104 686.312 42.072C685.128 42.008 683.8 41.976 682.328 41.976H681.8V45.912C681.8 46.84 681.8 47.608 681.8 48.216C681.832 48.824 681.848 49.352 681.848 49.8C681.88 50.216 681.912 50.616 681.944 51C681.976 51.384 682.008 51.832 682.04 52.344C682.072 52.952 682.392 53.256 683 53.256H685.16C686.984 53.256 688.408 53.224 689.432 53.16C690.488 53.096 691.288 52.952 691.832 52.728C692.376 52.472 692.76 52.12 692.984 51.672C693.24 51.224 693.464 50.616 693.656 49.848L693.848 49.656H696.104L695.192 56.712L694.808 57.192C694.648 57.192 694.248 57.176 693.608 57.144C693 57.144 692.312 57.128 691.544 57.096C690.776 57.064 690.008 57.032 689.24 57C688.472 57 687.864 57 687.416 57H677.72C677.496 57 677.128 57.016 676.616 57.048C676.104 57.08 675.576 57.112 675.032 57.144C674.488 57.176 673.96 57.208 673.448 57.24C672.936 57.272 672.568 57.288 672.344 57.288L672.248 57.096L672.392 55.272L672.632 55.08C673.144 55.08 673.624 55.064 674.072 55.032C674.52 54.968 674.888 54.824 675.176 54.6C675.432 54.376 675.672 54.088 675.896 53.736C676.152 53.384 676.312 52.76 676.376 51.864C676.376 51.64 676.376 51.384 676.376 51.096C676.408 50.776 676.424 50.392 676.424 49.944C676.456 49.496 676.472 48.952 676.472 48.312C676.472 47.672 676.472 46.872 676.472 45.912V38.088C676.472 36.968 676.472 36.024 676.472 35.256C676.472 34.488 676.472 33.832 676.472 33.288C676.472 32.744 676.456 32.28 676.424 31.896C676.424 31.512 676.408 31.128 676.376 30.744C676.312 29.88 676.152 29.256 675.896 28.872C675.672 28.488 675.432 28.2 675.176 28.008C674.888 27.752 674.52 27.608 674.072 27.576C673.624 27.544 673.144 27.528 672.632 27.528L672.392 27.336L672.248 25.512L672.344 25.32C672.568 25.32 672.936 25.336 673.448 25.368C673.96 25.4 674.504 25.432 675.08 25.464C675.688 25.496 676.264 25.528 676.808 25.56C677.384 25.592 677.848 25.608 678.2 25.608H686.072ZM725.069 57.288C724.813 57.256 724.445 57.224 723.965 57.192C723.517 57.16 723.021 57.128 722.477 57.096C721.965 57.064 721.453 57.032 720.941 57C720.461 57 720.045 57 719.693 57H716.861C716.477 57 716.029 57 715.517 57C715.005 57.032 714.493 57.064 713.981 57.096C713.469 57.128 712.973 57.16 712.493 57.192C712.045 57.224 711.709 57.256 711.485 57.288L711.389 57.096L711.533 55.272L711.773 55.08C712.989 55.08 713.821 54.936 714.269 54.648C714.941 54.2 715.357 53.272 715.517 51.864C715.549 51.32 715.565 50.488 715.565 49.368C715.597 48.216 715.613 47.064 715.613 45.912V35.352C715.613 34.232 715.597 33.352 715.565 32.712C715.533 32.04 715.485 31.384 715.421 30.744C715.293 29.88 715.149 29.256 714.989 28.872C714.861 28.488 714.653 28.184 714.365 27.96C714.109 27.8 713.789 27.688 713.405 27.624C713.053 27.56 712.509 27.528 711.773 27.528L711.533 27.336L711.389 25.512L711.485 25.32C712.317 25.416 713.133 25.496 713.933 25.56C714.765 25.592 715.421 25.608 715.901 25.608H719.549C720.285 25.608 721.117 25.592 722.045 25.56C723.005 25.528 723.837 25.512 724.541 25.512C728.349 25.512 731.229 26.232 733.181 27.672C735.133 29.08 736.109 31.192 736.109 34.008C736.109 36.024 735.517 37.864 734.333 39.528C733.181 41.16 731.453 42.584 729.149 43.8C730.237 45.432 731.149 46.76 731.885 47.784C732.653 48.808 733.309 49.624 733.853 50.232C734.589 51.096 735.277 51.816 735.917 52.392C736.557 52.968 737.181 53.448 737.789 53.832C738.429 54.216 739.085 54.504 739.757 54.696C740.429 54.888 741.181 55.016 742.013 55.08L742.301 55.272L742.397 57.096L742.301 57.288C741.085 57.352 740.029 57.4 739.133 57.432C738.237 57.496 737.581 57.528 737.165 57.528C735.469 57.528 733.949 57.064 732.605 56.136C731.293 55.176 729.885 53.56 728.381 51.288C728.029 50.776 727.645 50.2 727.229 49.56C726.845 48.92 726.445 48.296 726.029 47.688C725.645 47.048 725.277 46.44 724.925 45.864C724.573 45.288 724.285 44.792 724.061 44.376H720.941C720.941 45.464 720.941 46.408 720.941 47.208C720.941 47.976 720.941 48.648 720.941 49.224C720.973 49.8 721.005 50.296 721.037 50.712C721.069 51.128 721.101 51.512 721.133 51.864C721.261 53.336 721.613 54.264 722.189 54.648C722.413 54.808 722.701 54.92 723.053 54.984C723.405 55.048 723.997 55.08 724.829 55.08L725.021 55.272L725.165 57.096L725.069 57.288ZM723.389 40.824C725.725 40.824 727.549 40.264 728.861 39.144C730.205 38.024 730.877 36.472 730.877 34.488C730.877 32.696 730.285 31.4 729.101 30.6C727.917 29.768 726.029 29.352 723.437 29.352H721.181C721.085 30.632 721.021 31.624 720.989 32.328C720.957 33.032 720.941 33.704 720.941 34.344V39.048C720.941 39.72 721.021 40.184 721.181 40.44C721.341 40.696 721.645 40.824 722.093 40.824H723.389ZM766.977 25.512L766.833 27.336L766.641 27.528C766.129 27.528 765.649 27.56 765.201 27.624C764.753 27.656 764.369 27.784 764.049 28.008C763.761 28.232 763.489 28.52 763.233 28.872C763.009 29.224 762.897 29.848 762.897 30.744C762.865 31.192 762.833 31.608 762.801 31.992C762.801 32.376 762.785 32.824 762.753 33.336C762.753 33.848 762.753 34.472 762.753 35.208C762.753 35.944 762.753 36.888 762.753 38.04V44.952C762.753 46.104 762.753 47.048 762.753 47.784C762.753 48.488 762.753 49.08 762.753 49.56C762.785 50.04 762.801 50.456 762.801 50.808C762.833 51.128 762.865 51.48 762.897 51.864C762.961 52.76 763.105 53.384 763.329 53.736C763.553 54.088 763.793 54.376 764.049 54.6C764.337 54.824 764.705 54.968 765.153 55.032C765.633 55.064 766.129 55.08 766.641 55.08L766.833 55.272L766.977 57.096L766.881 57.288C766.657 57.288 766.289 57.272 765.777 57.24C765.265 57.208 764.737 57.176 764.193 57.144C763.649 57.112 763.121 57.08 762.609 57.048C762.097 57.016 761.729 57 761.505 57H758.673C758.449 57 758.081 57.016 757.569 57.048C757.057 57.08 756.529 57.112 755.985 57.144C755.441 57.176 754.913 57.208 754.401 57.24C753.889 57.272 753.521 57.288 753.297 57.288L753.201 57.096L753.345 55.272L753.585 55.08C754.097 55.08 754.577 55.064 755.025 55.032C755.505 54.968 755.873 54.824 756.129 54.6C756.385 54.376 756.609 54.088 756.801 53.736C757.025 53.384 757.201 52.76 757.329 51.864C757.329 51.64 757.329 51.384 757.329 51.096C757.361 50.776 757.377 50.392 757.377 49.944C757.409 49.496 757.425 48.952 757.425 48.312C757.425 47.672 757.425 46.872 757.425 45.912V38.088C757.425 36.968 757.425 36.024 757.425 35.256C757.425 34.488 757.409 33.832 757.377 33.288C757.377 32.744 757.361 32.28 757.329 31.896C757.329 31.512 757.313 31.128 757.281 30.744C757.217 29.912 757.073 29.304 756.849 28.92C756.625 28.536 756.385 28.232 756.129 28.008C755.841 27.784 755.473 27.656 755.025 27.624C754.577 27.56 754.097 27.528 753.585 27.528L753.345 27.336L753.201 25.512L753.297 25.32C753.521 25.32 753.889 25.336 754.401 25.368C754.913 25.4 755.441 25.432 755.985 25.464C756.529 25.496 757.057 25.528 757.569 25.56C758.081 25.592 758.449 25.608 758.673 25.608H761.505C761.729 25.608 762.097 25.592 762.609 25.56C763.121 25.528 763.649 25.496 764.193 25.464C764.737 25.432 765.265 25.4 765.777 25.368C766.289 25.336 766.657 25.32 766.881 25.32L766.977 25.512ZM755.793 23.784L754.545 21.384L754.689 21.048L763.377 16.2C764.273 16.264 764.929 16.6 765.345 17.208C765.793 17.784 766.017 18.488 766.017 19.32C766.017 19.64 765.953 19.944 765.825 20.232L756.177 23.928L755.793 23.784ZM797.137 25.08L805.393 46.872C805.681 47.672 805.937 48.344 806.161 48.888C806.385 49.432 806.561 49.896 806.689 50.28C806.849 50.664 806.977 50.984 807.073 51.24C807.201 51.464 807.313 51.672 807.409 51.864C807.793 52.664 808.177 53.288 808.561 53.736C808.977 54.152 809.377 54.472 809.761 54.696C810.177 54.888 810.593 55 811.009 55.032C811.425 55.064 811.841 55.08 812.257 55.08L812.497 55.272L812.641 57.096L812.545 57.288C812.321 57.288 811.985 57.272 811.537 57.24C811.089 57.208 810.625 57.176 810.145 57.144C809.665 57.112 809.201 57.08 808.753 57.048C808.337 57.016 808.017 57 807.793 57H804.289C804.065 57 803.697 57.016 803.185 57.048C802.673 57.08 802.129 57.112 801.553 57.144C801.009 57.176 800.481 57.208 799.969 57.24C799.457 57.272 799.089 57.288 798.865 57.288L798.769 57.096L798.913 55.272L799.105 55.08C799.937 55.08 800.561 54.984 800.977 54.792C801.425 54.568 801.649 53.992 801.649 53.064C801.649 52.552 801.553 51.832 801.361 50.904C801.201 49.944 800.801 48.76 800.161 47.352L799.153 45.048H790.753L789.793 47.352C789.217 48.76 788.785 49.96 788.497 50.952C788.209 51.944 788.065 52.648 788.065 53.064C788.065 53.832 788.225 54.36 788.545 54.648C788.865 54.936 789.441 55.08 790.273 55.08L790.513 55.272L790.657 57.096L790.561 57.288C790.337 57.288 789.985 57.272 789.505 57.24C789.025 57.208 788.513 57.176 787.969 57.144C787.457 57.112 786.961 57.08 786.481 57.048C786.001 57.016 785.649 57 785.425 57H782.593C782.369 57 782.033 57.016 781.585 57.048C781.137 57.08 780.673 57.112 780.193 57.144C779.713 57.176 779.249 57.208 778.801 57.24C778.385 57.272 778.065 57.288 777.841 57.288L777.793 57.096L777.889 55.272L778.129 55.08C778.545 55.08 778.961 55.048 779.377 54.984C779.793 54.92 780.209 54.776 780.625 54.552C781.041 54.328 781.441 54.024 781.825 53.64C782.241 53.224 782.657 52.696 783.073 52.056C783.169 51.864 783.313 51.576 783.505 51.192C783.697 50.776 784.001 50.056 784.417 49.032C784.833 48.008 785.409 46.552 786.145 44.664C786.881 42.776 787.857 40.264 789.073 37.128L793.201 26.52L796.609 25.08H797.137ZM791.569 41.544H797.857L794.785 33.048L791.569 41.544Z" fill="#D9AE5C"/>
<path d="M1025.5 187.5L1018.5 208.5L1050 187.5H1025.5Z" fill="white"/>
</g>
<defs>
<filter id="filter0_d_1256_4" x="-4" y="0" width="1222" height="378" filterUnits="userSpaceOnUse" color-interpolation-filters="sRGB">
<feFlood flood-opacity="0" result="BackgroundImageFix"/>
<feColorMatrix in="SourceAlpha" type="matrix" values="0 0 0 0 0 0 0 0 0 0 0 0 0 0 0 0 0 0 127 0" result="hardAlpha"/>
<feOffset dy="4"/>
<feGaussianBlur stdDeviation="2"/>
<feComposite in2="hardAlpha" operator="out"/>
<feColorMatrix type="matrix" values="0 0 0 0 0 0 0 0 0 0 0 0 0 0 0 0 0 0 0.25 0"/>
<feBlend mode="normal" in2="BackgroundImageFix" result="effect1_dropShadow_1256_4"/>
<feBlend mode="normal" in="SourceGraphic" in2="effect1_dropShadow_1256_4" result="shape"/>
</filter>
<clipPath id="clip0_1256_4">
<rect width="1214" height="370" fill="white"/>
</clipPath>
</defs>
</svg>
